<svg width="50" height="72" viewBox="0 0 50 72" fill="none" xmlns="http://www.w3.org/2000/svg">
<path d="M16.8722 7.25164V11.183C16.8722 11.4672 16.6511 11.6882 16.367 11.6882H11.5514C11.2672 11.6882 11.0462 11.9093 11.0462 12.1935V17.009C11.0462 17.2932 10.8252 17.5142 10.541 17.5142H6.6096C6.3254 17.5142 6.10436 17.2932 6.10436 17.009V12.1935C6.10436 11.9093 5.88332 11.6882 5.59913 11.6882H0.799395C0.5152 11.6882 0.294159 11.4672 0.294159 11.183V7.25164C0.294159 6.96744 0.5152 6.7464 0.799395 6.7464H5.61492C5.89911 6.7464 6.12015 6.52536 6.12015 6.24117V1.42564C6.12015 1.14145 6.34119 0.92041 6.62539 0.92041H10.5567C10.8409 0.92041 11.062 1.14145 11.062 1.42564V6.24117C11.062 6.52536 11.283 6.7464 11.5672 6.7464H16.367C16.6511 6.7464 16.8722 6.96744 16.8722 7.25164Z" fill="url(#paint0_linear_42_4)"/>
<path opacity="0.5" d="M48.5757 28.6767H0.846771C0.530999 28.6767 0.278381 28.4241 0.278381 28.1083V26.2926C0.278381 25.9769 0.530999 25.7242 0.846771 25.7242H48.5757C48.8915 25.7242 49.1441 25.9769 49.1441 26.2926V28.1083C49.1283 28.4241 48.8915 28.6767 48.5757 28.6767Z" fill="url(#paint1_linear_42_4)"/>
<path d="M48.5757 6.05167H24.8928C24.577 6.05167 24.3244 5.79905 24.3244 5.48328V3.68338C24.3244 3.36761 24.577 3.11499 24.8928 3.11499H48.5757C48.8915 3.11499 49.1441 3.36761 49.1441 3.68338V5.49907C49.1283 5.79905 48.8915 6.05167 48.5757 6.05167Z" fill="url(#paint2_linear_42_4)"/>
<path opacity="0.5" d="M41.5656 13.7249H24.8928C24.577 13.7249 24.3244 13.4723 24.3244 13.1565V11.3408C24.3244 11.0251 24.577 10.7725 24.8928 10.7725H41.5656C41.8813 10.7725 42.1339 11.0251 42.1339 11.3408V13.1565C42.1182 13.4723 41.8813 13.7249 41.5656 13.7249Z" fill="url(#paint3_linear_42_4)"/>
<path opacity="0.5" d="M48.5757 37.2973H0.846771C0.530999 37.2973 0.278381 37.0447 0.278381 36.7289V34.9132C0.278381 34.5975 0.530999 34.3448 0.846771 34.3448H48.5757C48.8915 34.3448 49.1441 34.5975 49.1441 34.9132V36.7289C49.1283 37.0447 48.8915 37.2973 48.5757 37.2973Z" fill="url(#paint4_linear_42_4)"/>
<path opacity="0.5" d="M48.5757 45.9179H0.846771C0.530999 45.9179 0.278381 45.6653 0.278381 45.3495V43.5338C0.278381 43.2181 0.530999 42.9655 0.846771 42.9655H48.5757C48.8915 42.9655 49.1441 43.2181 49.1441 43.5338V45.3653C49.1283 45.6653 48.8915 45.9179 48.5757 45.9179Z" fill="url(#paint5_linear_42_4)"/>
<path opacity="0.5" d="M48.5757 54.5543H0.846771C0.530999 54.5543 0.278381 54.3017 0.278381 53.9859V52.1702C0.278381 51.8544 0.530999 51.6018 0.846771 51.6018H48.5757C48.8915 51.6018 49.1441 51.8544 49.1441 52.1702V53.9859C49.1283 54.3017 48.8915 54.5543 48.5757 54.5543Z" fill="url(#paint6_linear_42_4)"/>
<path opacity="0.5" d="M48.5757 63.1749H0.846771C0.530999 63.1749 0.278381 62.9223 0.278381 62.6065V60.7908C0.278381 60.475 0.530999 60.2224 0.846771 60.2224H48.5757C48.8915 60.2224 49.1441 60.475 49.1441 60.7908V62.6065C49.1283 62.9223 48.8915 63.1749 48.5757 63.1749Z" fill="url(#paint7_linear_42_4)"/>
<path opacity="0.5" d="M48.5757 71.7955H0.846771C0.530999 71.7955 0.278381 71.5429 0.278381 71.2271V69.4114C0.278381 69.0956 0.530999 68.843 0.846771 68.843H48.5757C48.8915 68.843 49.1441 69.0956 49.1441 69.4114V71.2271C49.1283 71.5429 48.8915 71.7955 48.5757 71.7955Z" fill="url(#paint8_linear_42_4)"/>
<defs>
<linearGradient id="paint0_linear_42_4" x1="6.59014e-07" y1="-1.49997" x2="15" y2="23" gradientUnits="userSpaceOnUse">
<stop stop-color="#B0F4FF"/>
<stop offset="0.368525" stop-color="#80E4FD"/>
<stop offset="1" stop-color="#6CDDFC"/>
</linearGradient>
<linearGradient id="paint1_linear_42_4" x1="0.29057" y1="27.2072" x2="49.1355" y2="27.2072" gradientUnits="userSpaceOnUse">
<stop stop-color="#6CBCFC"/>
<stop offset="1" stop-color="#458DFC"/>
</linearGradient>
<linearGradient id="paint2_linear_42_4" x1="24.3248" y1="4.5844" x2="49.1355" y2="4.5844" gradientUnits="userSpaceOnUse">
<stop stop-color="#6CBCFC"/>
<stop offset="1" stop-color="#458DFC"/>
</linearGradient>
<linearGradient id="paint3_linear_42_4" x1="24.3248" y1="12.2616" x2="42.1256" y2="12.2616" gradientUnits="userSpaceOnUse">
<stop stop-color="#6CBCFC"/>
<stop offset="1" stop-color="#458DFC"/>
</linearGradient>
<linearGradient id="paint4_linear_42_4" x1="0.29057" y1="35.8317" x2="49.1355" y2="35.8317" gradientUnits="userSpaceOnUse">
<stop stop-color="#6CBCFC"/>
<stop offset="1" stop-color="#458DFC"/>
</linearGradient>
<linearGradient id="paint5_linear_42_4" x1="0.29057" y1="44.4562" x2="49.1355" y2="44.4562" gradientUnits="userSpaceOnUse">
<stop stop-color="#6CBCFC"/>
<stop offset="1" stop-color="#458DFC"/>
</linearGradient>
<linearGradient id="paint6_linear_42_4" x1="0.29057" y1="53.0807" x2="49.1355" y2="53.0807" gradientUnits="userSpaceOnUse">
<stop stop-color="#6CBCFC"/>
<stop offset="1" stop-color="#458DFC"/>
</linearGradient>
<linearGradient id="paint7_linear_42_4" x1="0.29057" y1="61.7052" x2="49.1355" y2="61.7052" gradientUnits="userSpaceOnUse">
<stop stop-color="#6CBCFC"/>
<stop offset="1" stop-color="#458DFC"/>
</linearGradient>
<linearGradient id="paint8_linear_42_4" x1="0.29057" y1="70.3297" x2="49.1355" y2="70.3297" gradientUnits="userSpaceOnUse">
<stop stop-color="#6CBCFC"/>
<stop offset="1" stop-color="#458DFC"/>
</linearGradient>
</defs>
</svg>
